<svg xmlns="http://www.w3.org/2000/svg" viewBox="0 0 512 512" role="img" aria-labelledby="title desc">
  <title id="title">萤火署名</title>
  <desc id="desc">由一笔 L 形书写线与萤火轨迹组成的 Lunan 博客图标</desc>
  <defs>
    <linearGradient id="bg" x1="72" y1="42" x2="438" y2="470" gradientUnits="userSpaceOnUse">
      <stop stop-color="#F8F3E9"/>
      <stop offset="1" stop-color="#E4EEF4"/>
    </linearGradient>
    <linearGradient id="ink" x1="138" y1="108" x2="390" y2="402" gradientUnits="userSpaceOnUse">
      <stop stop-color="#244F69"/>
      <stop offset="1" stop-color="#10283D"/>
    </linearGradient>
  </defs>
  <rect width="512" height="512" rx="124" fill="url(#bg)"/>
  <path d="M170 121v193c0 45 22 71 67 71h139" fill="none" stroke="url(#ink)" stroke-width="54" stroke-linecap="round" stroke-linejoin="round"/>
  <path d="M212 118c58-49 137-24 154 34 9 32-7 63-42 74" fill="none" stroke="#E3A634" stroke-width="13" stroke-linecap="round" stroke-dasharray="2 28"/>
  <circle cx="324" cy="226" r="16" fill="#FFC857"/>
  <path d="M313 214c-18-17-35-8-32 11 3 17 20 22 39 10M335 214c18-17 35-8 32 11-3 17-20 22-39 10" fill="#FFF5CD"/>
  <path d="M324 211v31" stroke="#8B641B" stroke-width="7" stroke-linecap="round"/>
</svg>
